<svg width="136" height="135" viewBox="0 0 136 135" fill="none" xmlns="http://www.w3.org/2000/svg">
<path d="M49.393 135L46.6866 113.4C45.2206 112.838 43.8403 112.163 42.5457 111.375C41.2466 110.588 39.9768 109.744 38.7363 108.844L18.607 117.281L0 85.2188L17.4229 72.0563C17.3101 71.2688 17.2537 70.5082 17.2537 69.7747V65.2185C17.2537 64.4895 17.3101 63.7313 17.4229 62.9438L0 49.7813L18.607 17.7188L38.7363 26.1563C39.9768 25.2563 41.2736 24.4125 42.6269 23.625C43.9801 22.8375 45.3333 22.1625 46.6866 21.6L49.393 0H86.607L89.3134 21.6C90.7794 22.1625 92.162 22.8375 93.4611 23.625C94.7557 24.4125 96.0232 25.2563 97.2637 26.1563L117.393 17.7188L136 49.7813L118.577 62.9438C118.69 63.7313 118.746 64.4895 118.746 65.2185V69.7747C118.746 70.5082 118.634 71.2688 118.408 72.0563L135.831 85.2188L117.224 117.281L97.2637 108.844C96.0232 109.744 94.7264 110.588 93.3731 111.375C92.0199 112.163 90.6667 112.838 89.3134 113.4L86.607 135H49.393ZM68.3383 91.125C74.8789 91.125 80.461 88.8188 85.0846 84.2063C89.7081 79.5938 92.0199 74.025 92.0199 67.5C92.0199 60.975 89.7081 55.4063 85.0846 50.7938C80.461 46.1813 74.8789 43.875 68.3383 43.875C61.6849 43.875 56.0735 46.1813 51.5041 50.7938C46.9392 55.4063 44.6567 60.975 44.6567 67.5C44.6567 74.025 46.9392 79.5938 51.5041 84.2063C56.0735 88.8188 61.6849 91.125 68.3383 91.125Z" fill="#E5E5CB"/>
<path d="M73.8083 76.8917L83.2 67.5L73.8083 58.1083L76.6666 55.25L88.9166 67.5L76.6666 79.75L73.8083 76.8917ZM63.1916 76.8917L53.8 67.5L63.1916 58.1083L60.3333 55.25L48.0833 67.5L60.3333 79.75L63.1916 76.8917Z" fill="#E5E5CB"/>
</svg>
